<svg width="301" height="160" viewBox="0 0 301 160" fill="none" xmlns="http://www.w3.org/2000/svg">
<path d="M200.167 59.3469H164.965C163.356 59.3469 162.031 60.6717 162.043 62.2804C162.043 63.8891 163.368 65.2139 164.977 65.2139H200.179V94.5608H164.965C163.356 94.5608 162.043 95.8738 162.043 97.4943C162.043 99.1148 163.356 100.428 164.965 100.428H200.167V129.763H135.63V30.0118L164.965 30V30.0118H200.167V59.3469Z" fill="#831F82"/>
<path d="M59.3351 129.763H30V30.0116H59.3469L59.3351 129.763Z" fill="#831F82"/>
<path fill-rule="evenodd" clip-rule="evenodd" d="M255.643 79.8933C255.643 79.5029 255.963 79.1599 256.377 79.1599C264.751 79.1599 270.583 74.0026 270.571 65.2139V30.0118L206.022 30L206.01 129.751H270.559V94.5371C270.559 85.7366 264.751 80.6148 256.365 80.6148C255.963 80.6148 255.643 80.2836 255.643 79.8933ZM238.303 112.15C236.682 112.15 235.369 110.825 235.369 109.216V88.682C235.369 87.0614 236.682 85.7485 238.303 85.7485C239.923 85.7485 241.236 87.0614 241.236 88.682V109.216C241.236 110.825 239.923 112.15 238.303 112.15ZM241.236 71.0691C241.236 72.666 239.899 74.0026 238.303 74.0026C236.694 74.0026 235.369 72.6778 235.369 71.0691V50.5345C235.369 48.914 236.682 47.601 238.303 47.601C239.923 47.601 241.236 48.914 241.236 50.5345V71.0691Z" fill="#831F82"/>
<path fill-rule="evenodd" clip-rule="evenodd" d="M129.751 30.0116V65.2137C129.751 73.9906 123.86 79.1479 115.545 79.1597C115.107 79.1597 114.811 79.5264 114.811 79.8931C114.811 80.3189 115.166 80.6264 115.545 80.6264C123.848 80.6264 129.739 85.7956 129.739 94.5488V129.763H100.404V88.6936C100.404 87.073 99.0911 85.7482 97.4706 85.7482C95.8501 85.7482 94.5371 87.0612 94.5371 88.6818V129.763H65.202V30.0116H129.751ZM97.4824 74.0142C99.0911 74.0142 100.416 72.6776 100.416 71.0807V50.558C100.416 48.9375 99.1029 47.6127 97.4824 47.6127C95.8619 47.6127 94.5489 48.9256 94.5489 50.5462V71.0807C94.5489 72.6776 95.8737 74.0142 97.4824 74.0142Z" fill="#831F82"/>
</svg>
