<?xml version="1.0" encoding="UTF-8"?> <svg xmlns="http://www.w3.org/2000/svg" id="Layer_2" data-name="Layer 2" viewBox="0 0 81.78 81.78"><defs><style> .cls-1 { fill: #d4ab4e; } .cls-2 { fill: #437c7f; } .cls-3 { fill: #fff; stroke: #c4c4c4; stroke-miterlimit: 10; stroke-width: 1.78px; } .cls-4 { fill: #073947; } </style></defs><g id="Layer_1-2" data-name="Layer 1"><circle class="cls-3" cx="40.89" cy="40.89" r="40"></circle><g id="Icons"><g><path class="cls-2" d="M48.71,34.51c0,.75.13,1.51.38,2.21l1.03,2.95c.3.85.45,1.76.45,2.66v23.67c.77-.3,1.52-.63,2.26-1v-17.97c0-.9.15-1.8.45-2.66l1.03-2.95c.25-.71.38-1.46.38-2.21v-21.34c-1.85-1.11-3.85-2.01-5.95-2.65v19.29h0Z"></path><path class="cls-2" d="M26.44,39.21c0,.75.13,1.51.38,2.21l1.03,2.95c.3.85.45,1.76.45,2.66v17.63c.73.39,1.48.75,2.26,1.07v-23.4c0-.9.15-1.8.45-2.66l1.03-2.95c.25-.71.38-1.46.38-2.21V15.44c-2.12.71-4.11,1.67-5.95,2.85v20.91h0Z"></path><path class="cls-1" d="M33.86,34.51c0,.75.13,1.51.38,2.21l1.03,2.95c.3.85.45,1.76.45,2.66v24.97c.75.15,1.49.26,2.26.35v-30.01c0-.9.15-1.8.45-2.66l1.03-2.95c.25-.71.38-1.46.38-2.21v-15.73c-2.05.08-4.05.39-5.95.91v19.52h0Z"></path><path class="cls-1" d="M41.28,29.82c0,.75.13,1.51.38,2.21l1.03,2.95c.3.85.45,1.76.45,2.66v30.07c.76-.06,1.51-.16,2.26-.28v-25.09c0-.9.15-1.8.45-2.66l1.03-2.95c.25-.71.38-1.46.38-2.21V14.82c-1.91-.46-3.91-.72-5.95-.75v15.75h0Z"></path><path class="cls-4" d="M56.13,18.83v20.38c0,.75.13,1.51.38,2.21l1.03,2.95c.3.85.45,1.76.45,2.66v14.61c5.94-4.93,9.72-12.37,9.72-20.71,0-9.17-4.58-17.26-11.57-22.11h0Z"></path><path class="cls-4" d="M14.07,40.94c0,8.01,3.5,15.2,9.05,20.12v-14.02c0-.9.15-1.8.45-2.66l1.03-2.95c.25-.71.38-1.46.38-2.21v-19.91c-6.61,4.9-10.9,12.76-10.9,21.63Z"></path></g></g></g></svg> 