<?xml version="1.0" encoding="utf-8"?>
<!-- Generator: Adobe Illustrator 25.0.1, SVG Export Plug-In . SVG Version: 6.00 Build 0)  -->
<svg version="1.1" id="Ebene_1" xmlns="http://www.w3.org/2000/svg" xmlns:xlink="http://www.w3.org/1999/xlink" x="0px" y="0px"
	 viewBox="0 0 801.7 172.6" style="enable-background:new 0 0 801.7 172.6;" xml:space="preserve">
<style type="text/css">
	.st0{fill:#020203;}
	.st1{fill:#818282;}
</style>
<rect x="580" y="2.9" class="st0" width="4.8" height="166.8"/>
<g>
	<g>
		<path d="M787.5,169.7v-11.9c0-2.8,0.6-4.7,1.7-5.7s2.5-1.5,4.1-1.5c1,0,1.8,0.2,2.6,0.7c0.7,0.4,1.2,1,1.5,1.8
			c0.3,0.7,0.4,1.9,0.4,3.4v13.2h3.7v-13.4c0-1.7-0.1-2.9-0.2-3.6c-0.2-1-0.6-2-1.2-2.7c-0.5-0.8-1.4-1.4-2.5-1.9s-2.3-0.7-3.6-0.7
			c-3,0-5.3,1.2-6.9,3.6v-3.1h-3.3v21.8L787.5,169.7L787.5,169.7z M765.1,152.2c1.2-1.1,2.6-1.7,4.3-1.7c1.9,0,3.4,0.7,4.6,2.1
			c0.8,0.9,1.2,2.3,1.4,4.1h-12.2C763.3,154.8,764,153.3,765.1,152.2 M773,166.1c-1,0.7-2.1,1.1-3.5,1.1c-1.8,0-3.3-0.6-4.5-1.9
			c-1.2-1.3-1.9-3.1-2-5.5h16.2c0-0.4,0-0.8,0-1c0-3.6-0.9-6.4-2.8-8.4c-1.8-2-4.2-3-7.1-3c-3,0-5.5,1-7.3,3c-1.9,2-2.8,4.9-2.8,8.5
			c0,3.5,0.9,6.3,2.8,8.2c1.9,2,4.4,2.9,7.6,2.9c2.5,0,4.6-0.6,6.2-1.9c1.6-1.2,2.7-3,3.3-5.2l-3.8-0.5
			C774.8,164.3,774,165.4,773,166.1 M754.8,147.9h-3.7v21.8h3.7V147.9z M754.8,139.7h-3.7v4.2h3.7V139.7z M745.4,139.7h-3.7v30.1
			h3.7V139.7z M736.1,147.9h-3.7v21.8h3.7V147.9z M736.1,139.7h-3.7v4.2h3.7V139.7z M714.2,152.6c1.2-1.4,2.6-2.1,4.2-2.1
			c1.6,0,3,0.7,4.1,2s1.7,3.5,1.7,6.3c0,2.8-0.6,4.9-1.8,6.3c-1.2,1.4-2.6,2.1-4.2,2.1c-2,0-3.5-0.9-4.7-2.9c-0.7-1.2-1.1-3-1.1-5.7
			C712.4,156,713,154,714.2,152.6 M712.5,167c1.5,2.1,3.5,3.2,6,3.2c2.6,0,4.8-1,6.7-3.1c1.8-2,2.8-4.9,2.8-8.6
			c0-1.6-0.2-3.1-0.7-4.4c-0.4-1.4-1-2.6-1.8-3.5c-0.8-1-1.8-1.7-3-2.3c-1.2-0.5-2.5-0.8-3.8-0.8c-2.4,0-4.4,1-6,2.9v-10.7H709v30.1
			h3.4L712.5,167L712.5,167z M689.9,152.6c1.2-1.4,2.8-2.1,4.6-2.1c1.8,0,3.3,0.7,4.6,2.1c1.2,1.4,1.8,3.4,1.8,6.1
			c0,2.9-0.6,5-1.8,6.4c-1.2,1.4-2.7,2.1-4.6,2.1c-1.8,0-3.4-0.7-4.6-2.1c-1.2-1.4-1.8-3.5-1.8-6.3S688.7,154,689.9,152.6
			 M687.1,167.3c1.9,2,4.3,2.9,7.4,2.9c1.9,0,3.7-0.5,5.3-1.3c1.6-0.9,2.8-2.1,3.7-3.7c0.8-1.6,1.3-3.8,1.3-6.6c0-3.5-1-6.2-2.8-8.1
			c-1.9-2-4.3-2.9-7.3-2.9c-2.7,0-5,0.8-6.8,2.4c-2.2,1.9-3.4,4.9-3.4,9C684.3,162.5,685.3,165.3,687.1,167.3 M654.4,169.7v-11.3
			c0-2,0.2-3.5,0.6-4.5c0.4-1.1,1-1.9,1.9-2.4c0.9-0.6,1.8-0.8,2.9-0.8c1.4,0,2.3,0.4,3,1.2c0.6,0.8,0.9,2.1,0.9,3.7v14.1h3.7v-12.6
			c0-2.2,0.5-3.9,1.5-4.9c1-1,2.3-1.5,3.8-1.5c0.8,0,1.6,0.2,2.2,0.6c0.6,0.4,1.1,0.9,1.3,1.6c0.2,0.6,0.4,1.7,0.4,3.2v13.7h3.7v-15
			c0-2.5-0.6-4.3-1.7-5.5c-1.2-1.2-2.8-1.8-5-1.8c-2.8,0-5,1.3-6.7,3.8c-0.4-1.2-1.2-2.1-2.2-2.8c-1-0.7-2.4-1-4-1
			c-1.5,0-2.7,0.3-3.9,1c-1.1,0.6-2,1.5-2.7,2.6v-3.1h-3.3v21.8L654.4,169.7L654.4,169.7z M619.4,169.7v-11.3c0-2,0.2-3.5,0.6-4.5
			c0.4-1.1,1-1.9,1.9-2.4c0.9-0.6,1.8-0.8,2.9-0.8c1.4,0,2.3,0.4,3,1.2c0.6,0.8,0.9,2.1,0.9,3.7v14.1h3.7v-12.6
			c0-2.2,0.5-3.9,1.5-4.9c1-1,2.3-1.5,3.8-1.5c0.8,0,1.6,0.2,2.2,0.6c0.6,0.4,1.1,0.9,1.3,1.6c0.2,0.6,0.4,1.7,0.4,3.2v13.7h3.7v-15
			c0-2.5-0.6-4.3-1.7-5.5c-1.2-1.2-2.8-1.8-5-1.8c-2.8,0-5,1.3-6.7,3.8c-0.4-1.2-1.2-2.1-2.2-2.8c-1-0.7-2.3-1-4-1
			c-1.5,0-2.7,0.3-3.9,1c-1.1,0.6-2,1.5-2.7,2.6v-3.1h-3.3v21.8L619.4,169.7L619.4,169.7z M609.2,139.7h-4v30.1h4V139.7z"/>
	</g>
	<g>
		<path d="M787,124.4v-8.6l2.6-2.5l7.2,11.1h4.5l-9.2-13.7l8.3-8.1h-4.8l-8.7,8.9V94.3h-3.7v30.1H787z M775.9,102.6h-3.7v21.8h3.7
			V102.6z M775.9,94.3h-3.7v4.3h3.7V94.3z M765.2,121.2c-0.5,0-1-0.1-1.3-0.3c-0.3-0.2-0.5-0.4-0.6-0.7s-0.2-1-0.2-2v-12.7h3.7v-2.9
			h-3.7V95l-3.7,2.2v5.4h-2.7v2.9h2.7V118c0,2.2,0.2,3.7,0.5,4.4s0.8,1.2,1.6,1.7s1.8,0.6,3.1,0.6c0.8,0,1.8-0.1,2.8-0.3l-0.5-3.3
			C766.2,121.2,765.6,121.2,765.2,121.2 M747.6,114.8c0,1.6-0.2,2.9-0.6,3.7c-0.5,1.1-1.3,1.9-2.4,2.6c-1.1,0.6-2.4,0.9-3.8,0.9
			c-1.4,0-2.5-0.3-3.3-1c-0.7-0.7-1.1-1.5-1.1-2.5c0-0.6,0.2-1.2,0.5-1.8c0.3-0.5,0.8-0.9,1.5-1.2s1.7-0.5,3.2-0.7
			c2.7-0.4,4.7-0.9,6-1.4L747.6,114.8L747.6,114.8z M748.6,124.4h3.9c-0.5-0.8-0.8-1.7-0.9-2.6c-0.2-0.9-0.2-3.1-0.2-6.5v-4.9
			c0-1.6-0.1-2.8-0.2-3.4c-0.2-1-0.6-1.9-1.2-2.5c-0.5-0.7-1.4-1.2-2.6-1.6c-1.2-0.4-2.7-0.7-4.5-0.7c-1.9,0-3.5,0.3-4.9,0.8
			c-1.4,0.5-2.5,1.2-3.3,2.2c-0.8,0.9-1.3,2.2-1.6,3.7l3.6,0.5c0.4-1.5,1-2.6,1.8-3.2s2.1-0.9,3.8-0.9c1.9,0,3.3,0.4,4.2,1.2
			c0.7,0.6,1,1.7,1,3.2c0,0.1,0,0.5,0,1c-1.4,0.5-3.6,0.9-6.6,1.3c-1.5,0.2-2.6,0.4-3.3,0.6c-1,0.3-1.9,0.7-2.7,1.2
			c-0.8,0.5-1.4,1.2-1.9,2.1c-0.5,0.9-0.7,1.9-0.7,2.9c0,1.8,0.6,3.3,1.9,4.5s3.1,1.8,5.5,1.8c1.5,0,2.8-0.2,4.1-0.7s2.6-1.3,4-2.5
			C748,122.7,748.2,123.6,748.6,124.4 M700.6,124.4v-11.3c0-2,0.2-3.5,0.6-4.6c0.4-1.1,1-1.9,1.9-2.4c0.9-0.6,1.8-0.8,2.9-0.8
			c1.4,0,2.3,0.4,3,1.2c0.6,0.8,0.9,2.1,0.9,3.7v14.1h3.7v-12.6c0-2.2,0.5-3.9,1.5-4.9s2.3-1.5,3.8-1.5c0.8,0,1.6,0.2,2.2,0.6
			c0.6,0.4,1.1,0.9,1.3,1.6c0.2,0.6,0.4,1.7,0.4,3.2v13.7h3.7v-14.9c0-2.5-0.6-4.3-1.7-5.5s-2.8-1.8-5-1.8c-2.8,0-5,1.3-6.7,3.8
			c-0.4-1.2-1.2-2.1-2.2-2.8c-1-0.7-2.4-1-4-1c-1.5,0-2.7,0.3-3.9,1s-2,1.5-2.7,2.6v-3.1h-3.3v21.8L700.6,124.4L700.6,124.4z
			 M684.8,124.4V113c0-1.6,0.2-3,0.6-4.3c0.3-0.9,0.7-1.5,1.4-2c0.6-0.5,1.4-0.7,2.2-0.7c0.9,0,1.8,0.3,2.7,0.8l1.3-3.4
			c-1.3-0.8-2.5-1.2-3.8-1.2c-0.9,0-1.7,0.2-2.4,0.7s-1.5,1.5-2.3,3.1v-3.3h-3.3v21.8L684.8,124.4L684.8,124.4z M660.3,107.3
			c1.2-1.4,2.8-2.1,4.6-2.1c1.8,0,3.3,0.7,4.6,2.1s1.8,3.4,1.8,6.1c0,2.9-0.6,5-1.8,6.4c-1.2,1.4-2.7,2.1-4.6,2.1
			c-1.8,0-3.4-0.7-4.6-2.1c-1.2-1.4-1.8-3.5-1.8-6.3S659.1,108.6,660.3,107.3 M657.5,122c1.9,2,4.3,2.9,7.4,2.9
			c1.9,0,3.7-0.4,5.3-1.3s2.8-2.1,3.7-3.7c0.8-1.6,1.3-3.8,1.3-6.6c0-3.5-1-6.2-2.8-8.1c-1.9-2-4.3-2.9-7.3-2.9
			c-2.7,0-5,0.8-6.8,2.4c-2.2,1.9-3.4,4.9-3.4,9C654.7,117.2,655.6,120,657.5,122 M647.2,124.4v-18.9h4.2v-2.9h-4.2v-2
			c0-1.3,0.2-2.2,0.7-2.7c0.5-0.5,1.3-0.7,2.4-0.7c0.7,0,1.4,0.1,2.2,0.2l0.5-3.2c-1.3-0.2-2.4-0.4-3.5-0.4c-1.6,0-2.9,0.3-3.8,0.9
			c-0.9,0.6-1.5,1.4-1.9,2.3c-0.3,0.7-0.4,1.8-0.4,3.3v2.3h-3.3v2.9h3.3v18.9H647.2z M621.2,124.4v-11.9c0-2.8,0.6-4.7,1.7-5.7
			s2.5-1.5,4.1-1.5c1,0,1.8,0.2,2.6,0.7c0.7,0.4,1.2,1,1.5,1.8c0.3,0.8,0.4,1.9,0.4,3.4v13.2h3.7V111c0-1.7-0.1-2.9-0.2-3.6
			c-0.2-1.1-0.6-2-1.2-2.7s-1.4-1.4-2.5-1.9c-1.1-0.5-2.3-0.7-3.6-0.7c-3,0-5.3,1.2-6.9,3.6v-3.1h-3.3v21.8L621.2,124.4L621.2,124.4
			z M609.2,94.3h-4v30.1h4V94.3z"/>
	</g>
	<g>
		<path d="M799.5,75.9c-0.5,0-1-0.1-1.3-0.3c-0.3-0.2-0.5-0.4-0.6-0.7s-0.2-1-0.2-2V60.2h3.7v-2.9h-3.7v-7.6l-3.7,2.2v5.4H791v2.9
			h2.7v12.5c0,2.2,0.2,3.7,0.5,4.4s0.8,1.2,1.6,1.7s1.8,0.6,3.1,0.6c0.8,0,1.8-0.1,2.8-0.3l-0.5-3.3
			C800.4,75.9,799.9,75.9,799.5,75.9 M784.4,79.1V60.2h4.2v-2.9h-4.2v-2c0-1.3,0.2-2.2,0.7-2.7c0.5-0.5,1.3-0.7,2.4-0.7
			c0.7,0,1.4,0.1,2.2,0.2l0.5-3.2c-1.3-0.2-2.4-0.4-3.4-0.4c-1.6,0-2.9,0.3-3.8,0.9c-0.9,0.6-1.5,1.4-1.9,2.3
			c-0.3,0.7-0.4,1.8-0.4,3.3v2.3h-3.3v2.9h3.3v18.9C780.7,79.1,784.4,79.1,784.4,79.1z M768.8,69.5c0,1.6-0.2,2.9-0.6,3.7
			c-0.5,1.1-1.3,1.9-2.4,2.6s-2.4,0.9-3.8,0.9c-1.4,0-2.5-0.3-3.3-1c-0.7-0.7-1.1-1.5-1.1-2.5c0-0.6,0.2-1.2,0.5-1.8
			c0.3-0.5,0.8-0.9,1.5-1.2s1.7-0.5,3.2-0.7c2.7-0.4,4.7-0.8,6-1.4L768.8,69.5L768.8,69.5z M769.9,79.1h3.9
			c-0.5-0.8-0.8-1.7-0.9-2.6c-0.2-0.9-0.2-3.1-0.2-6.5V65c0-1.6-0.1-2.8-0.2-3.4c-0.2-1-0.6-1.8-1.2-2.5c-0.5-0.7-1.4-1.2-2.6-1.7
			s-2.7-0.7-4.5-0.7c-1.9,0-3.5,0.3-4.9,0.8c-1.4,0.5-2.5,1.2-3.3,2.2s-1.3,2.2-1.6,3.7l3.6,0.5c0.4-1.5,1-2.6,1.8-3.2
			s2.1-0.9,3.8-0.9c1.9,0,3.3,0.4,4.2,1.2c0.7,0.6,1,1.7,1,3.2c0,0.1,0,0.5,0,1c-1.4,0.5-3.6,0.9-6.6,1.3c-1.5,0.2-2.6,0.4-3.3,0.6
			c-1,0.3-1.9,0.7-2.7,1.2s-1.4,1.2-1.9,2.1c-0.5,0.9-0.7,1.9-0.7,2.9c0,1.8,0.6,3.3,1.9,4.5c1.3,1.2,3.1,1.8,5.5,1.8
			c1.5,0,2.8-0.2,4.1-0.7c1.3-0.5,2.6-1.3,4-2.5C769.2,77.4,769.5,78.3,769.9,79.1 M733.7,79.1V67.2c0-1.7,0.2-3.1,0.6-4
			c0.4-1,1.1-1.7,2.1-2.3s2-0.8,3.1-0.8c1.5,0,2.6,0.4,3.4,1.3c0.8,0.8,1.2,2.2,1.2,4v13.8h3.7V65.3c0-2.1-0.3-3.8-0.8-4.9
			c-0.5-1.1-1.4-2-2.5-2.6s-2.6-0.9-4.2-0.9c-2.6,0-4.8,1-6.5,3V49H730v30.1L733.7,79.1L733.7,79.1z M719.8,75.2
			c-1,0.9-2.2,1.3-3.6,1.3c-1.8,0-3.3-0.7-4.4-2c-1.1-1.3-1.7-3.4-1.7-6.4c0-2.9,0.6-5,1.7-6.3c1.2-1.3,2.7-2,4.5-2
			c1.2,0,2.3,0.4,3.2,1.1s1.5,1.8,1.8,3.3l3.6-0.6c-0.4-2.2-1.4-3.9-2.9-5.1s-3.4-1.8-5.8-1.8c-1.9,0-3.6,0.4-5.2,1.3
			s-2.8,2.2-3.6,4c-0.8,1.8-1.2,3.8-1.2,6.2c0,3.6,0.9,6.4,2.7,8.4c1.8,1.9,4.2,2.9,7.2,2.9c2.4,0,4.4-0.7,6-2.1s2.7-3.4,3-5.9
			l-3.6-0.5C721.4,72.9,720.8,74.3,719.8,75.2 M686.3,77.8c1.5,1.2,3.6,1.8,6.5,1.8c1.7,0,3.2-0.3,4.6-0.9c1.3-0.6,2.4-1.4,3.1-2.5
			c0.7-1.1,1.1-2.2,1.1-3.5c0-1.3-0.3-2.3-0.9-3.2c-0.6-0.8-1.4-1.5-2.4-1.9c-1-0.4-2.8-1-5.5-1.7c-1.8-0.5-2.9-0.8-3.3-0.9
			c-0.6-0.3-1.1-0.6-1.4-1c-0.3-0.4-0.5-0.8-0.5-1.3c0-0.8,0.4-1.4,1.1-2c0.7-0.6,1.9-0.8,3.6-0.8c1.4,0,2.5,0.3,3.3,0.9
			c0.8,0.6,1.3,1.5,1.4,2.6l3.6-0.5c-0.2-1.4-0.7-2.5-1.3-3.4c-0.6-0.8-1.6-1.5-2.9-2s-2.8-0.7-4.5-0.7c-1.1,0-2.2,0.2-3.2,0.4
			s-1.8,0.7-2.3,1.1c-0.8,0.6-1.4,1.2-1.8,2.1c-0.4,0.8-0.7,1.7-0.7,2.7c0,1.1,0.3,2,0.8,2.9s1.3,1.6,2.4,2.1s2.9,1.1,5.6,1.8
			c2,0.5,3.3,0.9,3.8,1.2c0.7,0.5,1.1,1.1,1.1,2c0,0.9-0.4,1.7-1.2,2.4s-2.1,1-3.8,1c-1.7,0-3-0.4-3.9-1.2s-1.5-1.9-1.7-3.4
			l-3.7,0.6C683.8,74.9,684.8,76.6,686.3,77.8 M678.1,75.9c-0.5,0-1-0.1-1.3-0.3c-0.3-0.2-0.5-0.4-0.6-0.7s-0.2-1-0.2-2V60.2h3.7
			v-2.9H676v-7.6l-3.7,2.2v5.4h-2.7v2.9h2.7v12.5c0,2.2,0.2,3.7,0.5,4.4s0.8,1.2,1.6,1.7s1.8,0.6,3.1,0.6c0.8,0,1.8-0.1,2.8-0.3
			l-0.5-3.3C679.1,75.9,678.5,75.9,678.1,75.9 M659.8,79.1V67.7c0-1.6,0.2-3,0.6-4.3c0.3-0.9,0.7-1.5,1.4-2s1.4-0.7,2.2-0.7
			c0.9,0,1.8,0.3,2.7,0.8l1.3-3.4c-1.3-0.8-2.5-1.2-3.8-1.2c-0.9,0-1.7,0.2-2.4,0.7s-1.5,1.5-2.3,3.1v-3.3h-3.3v21.8
			C656.1,79.1,659.8,79.1,659.8,79.1z M649,57.3h-3.7v21.8h3.7V57.3z M649,49h-3.7v4.2h3.7V49z M613.8,79.1l6.4-22.9
			c0.3-1,0.6-2.2,0.9-3.5c0.1,0.4,0.4,1.6,0.9,3.5l6.3,22.9h3.8l8.2-30.1h-4l-4.7,19.3c-0.6,2.5-1.1,4.6-1.5,6.5
			c-0.5-3.3-1.3-6.9-2.3-10.6L623.6,49h-4.8l-5.7,20.3c-0.1,0.5-0.6,2.3-1.3,5.6c-0.4-2-0.8-4.1-1.3-6.2L605.9,49h-4.1l8,30.1H613.8
			z"/>
	</g>
	<g>
		<path d="M793.6,33.8V22.4c0-1.6,0.2-3,0.6-4.3c0.3-0.9,0.7-1.5,1.4-2s1.4-0.7,2.2-0.7c0.9,0,1.8,0.3,2.7,0.8l1.3-3.4
			c-1.3-0.8-2.5-1.2-3.8-1.2c-0.9,0-1.7,0.2-2.4,0.7s-1.5,1.5-2.3,3.1V12h-3.3v21.8H793.6z M782.3,3.5h-3.8v4.2h3.8V3.5z M774.7,3.5
			h-3.9v4.2h3.9V3.5z M785.4,33.8V12h-3.7v11.7c0,1.9-0.2,3.3-0.6,4.3c-0.4,1-1.1,1.8-2.1,2.3s-2,0.8-3.1,0.8s-2-0.3-2.8-0.8
			c-0.8-0.5-1.2-1.3-1.5-2.3c-0.2-0.7-0.2-2-0.2-3.9V12h-3.7v13.5c0,1.6,0.1,2.7,0.2,3.5c0.2,1.1,0.6,2,1.1,2.7
			c0.5,0.8,1.4,1.4,2.5,1.9c1.1,0.5,2.3,0.7,3.6,0.7c2.9,0,5.2-1.2,6.9-3.7v3.2L785.4,33.8L785.4,33.8z M762,33.8V14.9h4.2V12H762
			v-2c0-1.3,0.2-2.2,0.7-2.7c0.5-0.5,1.3-0.7,2.4-0.7c0.7,0,1.4,0.1,2.2,0.2l0.5-3.2c-1.3-0.2-2.4-0.4-3.5-0.4
			c-1.6,0-2.9,0.3-3.8,0.9c-0.9,0.6-1.5,1.4-1.9,2.3c-0.3,0.7-0.4,1.8-0.4,3.3V12H755v2.9h3.3v18.9H762z M728.6,33.8V21.9
			c0-2.8,0.6-4.7,1.7-5.7s2.5-1.5,4.1-1.5c1,0,1.8,0.2,2.6,0.7c0.7,0.4,1.2,1,1.5,1.8c0.3,0.8,0.4,1.9,0.4,3.4v13.2h3.7V20.4
			c0-1.7-0.1-2.9-0.2-3.6c-0.2-1-0.6-2-1.2-2.7c-0.5-0.8-1.4-1.4-2.5-1.9c-1.1-0.5-2.3-0.7-3.6-0.7c-3,0-5.3,1.2-6.9,3.6V12h-3.3
			v21.8H728.6z M707.5,16.2c1.2-1.1,2.6-1.7,4.3-1.7c1.9,0,3.4,0.7,4.6,2.1c0.8,0.9,1.2,2.3,1.4,4.1h-12.2
			C705.7,18.9,706.4,17.4,707.5,16.2 M715.4,30.2c-1,0.7-2.1,1.1-3.5,1.1c-1.8,0-3.3-0.6-4.5-1.9c-1.2-1.3-1.9-3.1-2-5.5h16.2
			c0-0.4,0-0.8,0-1c0-3.6-0.9-6.4-2.8-8.4c-1.8-2-4.2-3-7.1-3c-3,0-5.5,1-7.3,3c-1.9,2-2.8,4.9-2.8,8.5c0,3.5,0.9,6.3,2.8,8.3
			c1.9,2,4.4,2.9,7.6,2.9c2.5,0,4.6-0.6,6.2-1.8c1.6-1.2,2.7-3,3.3-5.2l-3.8-0.5C717.2,28.3,716.4,29.4,715.4,30.2 M698.4,3.7h-3.7
			v30.1h3.7V3.7z M690.2,33.8V12h-3.7v11.7c0,1.9-0.2,3.3-0.6,4.3c-0.4,1-1.1,1.8-2.1,2.3s-2,0.8-3.1,0.8s-2-0.3-2.8-0.8
			c-0.8-0.5-1.2-1.3-1.5-2.3c-0.2-0.7-0.2-2-0.2-3.9V12h-3.7v13.5c0,1.6,0.1,2.7,0.2,3.5c0.2,1.1,0.6,2,1.1,2.7
			c0.5,0.8,1.4,1.4,2.5,1.9c1.1,0.5,2.3,0.7,3.6,0.7c2.9,0,5.2-1.2,6.9-3.7v3.2L690.2,33.8L690.2,33.8z M654.2,33.8V21.8
			c0-1.7,0.2-3,0.6-4c0.4-1,1.1-1.7,2.1-2.3s2-0.8,3.1-0.8c1.5,0,2.6,0.4,3.4,1.3s1.2,2.2,1.2,4v13.8h3.7V20c0-2.1-0.3-3.8-0.8-4.9
			c-0.5-1.1-1.4-2-2.5-2.6s-2.6-1-4.2-1c-2.6,0-4.8,1-6.5,3V3.7h-3.7v30.1L654.2,33.8L654.2,33.8z M643.2,29.9
			c-1,0.9-2.2,1.3-3.6,1.3c-1.8,0-3.3-0.7-4.4-2s-1.7-3.5-1.7-6.4c0-2.9,0.6-5,1.7-6.3c1.2-1.3,2.7-2,4.5-2c1.2,0,2.3,0.4,3.2,1.1
			s1.5,1.8,1.8,3.3l3.6-0.5c-0.4-2.2-1.4-3.9-2.9-5.1c-1.5-1.2-3.4-1.8-5.8-1.8c-1.9,0-3.6,0.4-5.2,1.3s-2.8,2.2-3.6,4
			c-0.8,1.8-1.2,3.8-1.2,6.2c0,3.6,0.9,6.4,2.7,8.4c1.8,1.9,4.2,2.9,7.2,2.9c2.4,0,4.4-0.7,6-2.1c1.6-1.4,2.7-3.4,3-5.9l-3.6-0.5
			C644.8,27.6,644.1,29,643.2,29.9 M604.8,29.5c1,1.6,2.5,2.8,4.3,3.6s4.1,1.2,6.8,1.2c2.2,0,4.1-0.4,5.8-1.2s3-1.9,4-3.3
			s1.4-2.9,1.4-4.5c0-1.6-0.4-3-1.2-4.3c-0.8-1.2-2.1-2.3-3.9-3.1c-1.2-0.5-3.4-1.2-6.7-1.9c-3.2-0.7-5.2-1.5-6-2.1
			c-0.8-0.7-1.2-1.6-1.2-2.7c0-1.2,0.5-2.3,1.7-3.2c1.1-0.9,2.8-1.3,5.3-1.3c2.3,0,4.1,0.5,5.2,1.5c1.2,1,1.9,2.4,2.1,4.3l3.8-0.3
			c-0.1-1.8-0.6-3.3-1.5-4.7c-0.9-1.4-2.2-2.5-3.9-3.2c-1.7-0.7-3.7-1.1-5.9-1.1c-2,0-3.9,0.3-5.5,1c-1.7,0.7-2.9,1.7-3.8,3
			c-0.9,1.3-1.3,2.7-1.3,4.3c0,1.4,0.3,2.6,1.1,3.7c0.7,1.1,1.8,2,3.2,2.8c1.1,0.6,3,1.2,5.8,1.9c2.8,0.7,4.5,1.2,5.3,1.5
			c1.3,0.5,2.2,1.1,2.7,1.8s0.8,1.5,0.8,2.5c0,0.9-0.3,1.8-0.8,2.6c-0.6,0.8-1.4,1.4-2.6,1.9s-2.5,0.7-4,0.7c-1.7,0-3.2-0.3-4.6-0.9
			c-1.4-0.6-2.4-1.4-3-2.3c-0.7-1-1.1-2.2-1.2-3.7l-3.8,0.3C603.2,26.1,603.8,27.9,604.8,29.5"/>
	</g>
</g>
<g>
	<g>
		<path class="st1" d="M446.9,158c11.3,9.7,27.5,14.6,48.6,14.6c14.5,0,26.6-2,36.3-6.1c9.7-4.1,17.2-10.3,22.5-18.6
			c5.3-8.3,8-17.3,8-26.8c0-10.5-2.2-19.4-6.7-26.6c-4.4-7.2-10.6-12.8-18.4-16.9c-7.8-4.1-20-8.1-36.3-12
			c-16.4-3.9-26.7-7.6-30.9-11.2c-3.3-2.8-5-6.2-5-10.1c0-4.3,1.8-7.8,5.4-10.3c5.5-4,13.2-6,23-6c9.5,0,16.6,1.9,21.3,5.6
			c4.7,3.8,7.8,9.9,9.3,18.5l33.7-1.5c-0.5-15.3-6.1-27.6-16.7-36.7C530.2,4.6,514.5,0,493.6,0c-12.8,0-23.8,1.9-32.8,5.8
			c-9.1,3.9-16,9.5-20.8,16.9s-7.2,15.3-7.2,23.8c0,13.2,5.1,24.4,15.4,33.6c7.3,6.5,19.9,12,38,16.5c14,3.5,23,5.9,27,7.3
			c5.8,2.1,9.8,4.5,12.1,7.2c2.3,2.8,3.5,6.1,3.5,10.1c0,6.1-2.8,11.5-8.2,16.1s-13.7,6.9-24.5,6.9c-10.2,0-18.4-2.6-24.4-7.7
			s-10-13.2-12-24.2l-32.8,3.2C428.8,134,435.6,148.2,446.9,158"/>
	</g>
	<path d="M302,158c11.3,9.7,27.5,14.6,48.6,14.6c14.5,0,26.6-2,36.3-6.1c9.7-4.1,17.2-10.2,22.5-18.6c5.3-8.3,8-17.3,8-26.8
		c0-10.5-2.2-19.4-6.6-26.6c-4.4-7.2-10.6-12.8-18.4-16.9c-7.9-4.1-20-8.1-36.3-12s-26.7-7.6-30.9-11.2c-3.3-2.8-5-6.2-5-10.1
		c0-4.3,1.8-7.8,5.4-10.3c5.5-4,13.2-6,23-6c9.5,0,16.6,1.9,21.3,5.6c4.7,3.8,7.8,9.9,9.3,18.5l33.7-1.5
		c-0.5-15.3-6.1-27.6-16.7-36.7C385.3,4.6,369.6,0,348.6,0c-12.8,0-23.8,1.9-32.8,5.8s-16,9.5-20.8,16.9s-7.2,15.3-7.2,23.8
		c0,13.2,5.1,24.4,15.4,33.6c7.3,6.5,19.9,12,38,16.5c14,3.5,23,5.9,27,7.3c5.8,2.1,9.8,4.5,12.1,7.2c2.3,2.8,3.5,6.1,3.5,10.1
		c0,6.1-2.8,11.5-8.2,16.1s-13.7,6.9-24.5,6.9c-10.2,0-18.4-2.6-24.4-7.7c-6-5.2-10-13.2-12-24.2l-32.8,3.2
		C283.9,134,290.7,148.2,302,158 M268.7,2.9H235v166.8h33.7L268.7,2.9L268.7,2.9z M76.3,169.6l33.1-124.7l33.2,124.7h35.7L218.9,2.9
		H185l-25.6,116.5L130.1,2.9h-40L59.6,117.4L34.5,2.9H0l39.8,166.8H76.3L76.3,169.6z"/>
</g>
</svg>
