<?xml version="1.0" standalone="no"?>
<!DOCTYPE svg PUBLIC "-//W3C//DTD SVG 20010904//EN"
 "http://www.w3.org/TR/2001/REC-SVG-20010904/DTD/svg10.dtd">
<svg version="1.0" xmlns="http://www.w3.org/2000/svg"
 width="225.000000pt" height="225.000000pt" viewBox="0 0 225.000000 225.000000"
 preserveAspectRatio="xMidYMid meet">

<g transform="translate(0.000000,225.000000) scale(0.100000,-0.100000)"
fill="#000000" stroke="none">
<path d="M986 2239 c-322 -42 -613 -222 -793 -491 -296 -444 -242 -1023 131
-1406 282 -290 689 -403 1088 -302 380 97 701 418 798 798 101 399 -12 806
-302 1088 -247 241 -586 356 -922 313z m424 -425 c23 -23 25 -31 25 -119 -1
-53 1 -94 5 -92 98 57 187 61 260 13 71 -47 80 -80 80 -299 0 -186 0 -188 -25
-212 -16 -17 -35 -25 -60 -25 -25 0 -44 8 -60 25 -24 23 -25 29 -25 167 0 144
-9 205 -32 220 -23 14 -82 8 -108 -12 -24 -18 -25 -22 -30 -185 l-5 -167 -28
-24 c-39 -33 -81 -31 -118 5 l-29 29 0 316 c0 343 2 359 55 382 36 16 62 10
95 -22z m-196 -216 c35 -50 22 -75 -138 -248 l-115 -125 102 -2 c130 -4 143
-7 162 -43 16 -30 12 -53 -13 -82 -14 -16 -38 -18 -231 -18 -235 0 -252 4
-265 55 -9 37 10 65 144 210 l121 130 -101 5 c-92 5 -104 7 -121 29 -23 28
-24 59 -3 89 15 22 19 22 229 22 210 0 214 0 229 -22z m-351 -569 c45 -12 101
-59 115 -96 6 -16 12 -117 15 -225 4 -180 2 -199 -14 -214 -35 -32 -139 -9
-139 31 0 19 -14 19 -29 1 -20 -24 -100 -46 -165 -46 -116 0 -181 64 -173 173
6 100 71 145 233 162 88 10 114 20 114 44 0 33 -28 51 -78 51 -40 0 -56 -7
-101 -40 -62 -46 -83 -49 -116 -15 -29 28 -31 45 -10 89 17 35 39 51 105 77
52 21 183 25 243 8z m285 -12 c15 -15 31 -65 53 -157 17 -74 34 -138 38 -143
4 -4 13 23 20 60 40 221 62 263 135 263 49 0 79 -18 94 -57 6 -15 23 -86 38
-156 l28 -128 34 148 c37 165 53 193 109 193 43 0 83 -38 83 -77 0 -29 -111
-401 -131 -440 -16 -31 -73 -56 -109 -48 -56 12 -75 46 -111 188 l-33 132 -23
-90 c-50 -186 -53 -194 -80 -212 -15 -10 -44 -17 -66 -17 -68 2 -85 31 -155
261 -34 111 -62 212 -62 226 0 13 9 36 21 51 27 35 86 36 117 3z"/>
<path d="M740 713 c-78 -16 -110 -36 -110 -66 0 -30 11 -44 44 -56 66 -26 156
35 156 105 0 38 3 37 -90 17z"/>
</g>
</svg>
